<svg width="28" height="28" viewBox="0 0 28 28" fill="none" xmlns="http://www.w3.org/2000/svg">
<path d="M10.5 17.0625C11.2249 17.0625 11.8125 16.4749 11.8125 15.75C11.8125 15.0251 11.2249 14.4375 10.5 14.4375C9.77513 14.4375 9.1875 15.0251 9.1875 15.75C9.1875 16.4749 9.77513 17.0625 10.5 17.0625Z" fill="white"/>
<path d="M17.5 17.0625C18.2249 17.0625 18.8125 16.4749 18.8125 15.75C18.8125 15.0251 18.2249 14.4375 17.5 14.4375C16.7751 14.4375 16.1875 15.0251 16.1875 15.75C16.1875 16.4749 16.7751 17.0625 17.5 17.0625Z" fill="white"/>
<path fill-rule="evenodd" clip-rule="evenodd" d="M13.9935 8.75001C12.0966 8.73598 10.2092 9.01769 8.39912 9.58499C7.93799 9.72951 7.44701 9.47285 7.30249 9.01172C7.15796 8.55059 7.41463 8.05961 7.87576 7.91508C9.8573 7.29405 11.9234 6.98533 13.9999 7.00001C16.0764 6.98533 18.1426 7.29405 20.1241 7.91508C20.5853 8.05961 20.8419 8.55059 20.6974 9.01172C20.5529 9.47285 20.0619 9.72951 19.6008 9.58499C17.7907 9.01769 15.9032 8.73598 14.0064 8.75001H13.9935Z" fill="white"/>
<path fill-rule="evenodd" clip-rule="evenodd" d="M7.30249 18.9883C7.44701 18.5272 7.93799 18.2705 8.39912 18.415C10.2092 18.9823 12.0966 19.264 13.9935 19.25H14.0064C15.9032 19.264 17.7907 18.9823 19.6008 18.415C20.0619 18.2705 20.5529 18.5272 20.6974 18.9883C20.8419 19.4494 20.5853 19.9404 20.1241 20.0849C18.1426 20.706 16.0764 21.0147 13.9999 21C11.9234 21.0147 9.8573 20.706 7.87576 20.0849C7.41463 19.9404 7.15796 19.4494 7.30249 18.9883Z" fill="white"/>
<path fill-rule="evenodd" clip-rule="evenodd" d="M17.6925 4.20969C18.0692 3.99733 18.5108 3.93097 18.9332 4.02323C20.086 4.27308 21.2147 4.62358 22.3063 5.07071C22.552 5.16546 22.7727 5.31547 22.9512 5.50921C23.1317 5.70504 23.2641 5.94013 23.3381 6.19588L27.0444 18.5722C27.1411 18.8946 27.1433 19.238 27.0509 19.5617C26.9584 19.8853 26.7751 20.1757 26.5227 20.3984L26.5182 20.4024C24.7091 21.9764 22.2579 23.1679 19.4737 23.8504C19.087 23.9489 18.678 23.9106 18.3162 23.7418C17.9559 23.5736 17.6647 23.2864 17.4916 22.9288L16.1718 20.3112C15.9543 19.8796 16.1277 19.3535 16.5593 19.1359C16.9908 18.9184 17.5169 19.0918 17.7345 19.5233L19.0579 22.1483L19.0589 22.1503C21.6295 21.5199 23.8119 20.4374 25.3694 19.0821L25.9438 19.7422L25.3649 19.0861C25.3665 19.0847 25.3676 19.0829 25.3682 19.0809C25.3688 19.0789 25.3687 19.0768 25.3681 19.0748L21.6616 6.6977C21.6585 6.69647 21.6554 6.69522 21.6523 6.69395C20.6523 6.28368 19.618 5.96223 18.5616 5.73334L18.5597 5.73292C18.5571 5.73235 18.5544 5.73276 18.552 5.73408C18.5499 5.73527 18.5483 5.73712 18.5473 5.73933L17.6855 8.34654C17.5339 8.80538 17.0389 9.05439 16.5801 8.90272C16.1213 8.75106 15.8723 8.25615 16.0239 7.79732L16.8905 5.17565C17.0301 4.76606 17.3156 4.42221 17.6925 4.20969Z" fill="white"/>
<path fill-rule="evenodd" clip-rule="evenodd" d="M9.44794 5.73408C9.4456 5.73276 9.44285 5.73235 9.44023 5.73292L9.43832 5.73334C8.38191 5.96223 7.34769 6.28368 6.34765 6.69395C6.34456 6.69522 6.34147 6.69647 6.33837 6.6977L2.63188 19.0745C2.63128 19.0765 2.63119 19.0789 2.63177 19.0809C2.63229 19.0827 2.63326 19.0844 2.63459 19.0857C4.19182 20.4393 6.37266 21.5204 8.94109 22.1503L8.94203 22.1483L10.2655 19.5233C10.483 19.0918 11.0092 18.9184 11.4407 19.1359C11.8722 19.3535 12.0457 19.8797 11.8281 20.3112L10.5084 22.9288C10.3352 23.2864 10.0441 23.5736 9.68375 23.7418C9.32197 23.9106 8.91296 23.9489 8.52622 23.8504C5.74203 23.1679 3.29083 21.9764 1.48179 20.4023L1.47726 20.3984C1.22486 20.1757 1.04157 19.8853 0.949102 19.5617C0.856654 19.2381 0.858855 18.8948 0.955443 18.5725C0.955418 18.5726 0.955467 18.5724 0.955443 18.5725L4.66185 6.1959C4.73581 5.94014 4.86824 5.70504 5.04871 5.50921C5.22726 5.31546 5.44795 5.16545 5.69366 5.07071C6.78554 4.62346 7.91456 4.27288 9.06775 4.02302C9.48987 3.93107 9.93108 3.99749 10.3074 4.20969C10.6844 4.42221 10.9698 4.76607 11.1094 5.17566L11.112 5.18324L11.976 7.79732C12.1277 8.25615 11.8787 8.75106 11.4198 8.90272C10.961 9.05439 10.4661 8.80538 10.3144 8.34654L9.45263 5.73932C9.45169 5.73711 9.45005 5.73527 9.44794 5.73408Z" fill="white"/>
<path d="M10.5 17.0625C11.2249 17.0625 11.8125 16.4749 11.8125 15.75C11.8125 15.0251 11.2249 14.4375 10.5 14.4375C9.77513 14.4375 9.1875 15.0251 9.1875 15.75C9.1875 16.4749 9.77513 17.0625 10.5 17.0625Z" fill="white"/>
<path d="M17.5 17.0625C18.2249 17.0625 18.8125 16.4749 18.8125 15.75C18.8125 15.0251 18.2249 14.4375 17.5 14.4375C16.7751 14.4375 16.1875 15.0251 16.1875 15.75C16.1875 16.4749 16.7751 17.0625 17.5 17.0625Z" fill="white"/>
<path fill-rule="evenodd" clip-rule="evenodd" d="M13.9935 8.75001C12.0966 8.73598 10.2092 9.01769 8.39912 9.58499C7.93799 9.72951 7.44701 9.47285 7.30249 9.01172C7.15796 8.55059 7.41463 8.05961 7.87576 7.91508C9.8573 7.29405 11.9234 6.98533 13.9999 7.00001C16.0764 6.98533 18.1426 7.29405 20.1241 7.91508C20.5853 8.05961 20.8419 8.55059 20.6974 9.01172C20.5529 9.47285 20.0619 9.72951 19.6008 9.58499C17.7907 9.01769 15.9032 8.73598 14.0064 8.75001H13.9935Z" fill="white"/>
<path fill-rule="evenodd" clip-rule="evenodd" d="M7.30249 18.9883C7.44701 18.5272 7.93799 18.2705 8.39912 18.415C10.2092 18.9823 12.0966 19.264 13.9935 19.25H14.0064C15.9032 19.264 17.7907 18.9823 19.6008 18.415C20.0619 18.2705 20.5529 18.5272 20.6974 18.9883C20.8419 19.4494 20.5853 19.9404 20.1241 20.0849C18.1426 20.706 16.0764 21.0147 13.9999 21C11.9234 21.0147 9.8573 20.706 7.87576 20.0849C7.41463 19.9404 7.15796 19.4494 7.30249 18.9883Z" fill="white"/>
<path fill-rule="evenodd" clip-rule="evenodd" d="M17.6925 4.20969C18.0692 3.99733 18.5108 3.93097 18.9332 4.02323C20.086 4.27308 21.2147 4.62358 22.3063 5.07071C22.552 5.16546 22.7727 5.31547 22.9512 5.50921C23.1317 5.70504 23.2641 5.94013 23.3381 6.19588L27.0444 18.5722C27.1411 18.8946 27.1433 19.238 27.0509 19.5617C26.9584 19.8853 26.7751 20.1757 26.5227 20.3984L26.5182 20.4024C24.7091 21.9764 22.2579 23.1679 19.4737 23.8504C19.087 23.9489 18.678 23.9106 18.3162 23.7418C17.9559 23.5736 17.6647 23.2864 17.4916 22.9288L16.1718 20.3112C15.9543 19.8796 16.1277 19.3535 16.5593 19.1359C16.9908 18.9184 17.5169 19.0918 17.7345 19.5233L19.0579 22.1483L19.0589 22.1503C21.6295 21.5199 23.8119 20.4374 25.3694 19.0821L25.9438 19.7422L25.3649 19.0861C25.3665 19.0847 25.3676 19.0829 25.3682 19.0809C25.3688 19.0789 25.3687 19.0768 25.3681 19.0748L21.6616 6.6977C21.6585 6.69647 21.6554 6.69522 21.6523 6.69395C20.6523 6.28368 19.618 5.96223 18.5616 5.73334L18.5597 5.73292C18.5571 5.73235 18.5544 5.73276 18.552 5.73408C18.5499 5.73527 18.5483 5.73712 18.5473 5.73933L17.6855 8.34654C17.5339 8.80538 17.0389 9.05439 16.5801 8.90272C16.1213 8.75106 15.8723 8.25615 16.0239 7.79732L16.8905 5.17565C17.0301 4.76606 17.3156 4.42221 17.6925 4.20969Z" fill="white"/>
<path fill-rule="evenodd" clip-rule="evenodd" d="M9.44794 5.73408C9.4456 5.73276 9.44285 5.73235 9.44023 5.73292L9.43832 5.73334C8.38191 5.96223 7.34769 6.28368 6.34765 6.69395C6.34456 6.69522 6.34147 6.69647 6.33837 6.6977L2.63188 19.0745C2.63128 19.0765 2.63119 19.0789 2.63177 19.0809C2.63229 19.0827 2.63326 19.0844 2.63459 19.0857C4.19182 20.4393 6.37266 21.5204 8.94109 22.1503L8.94203 22.1483L10.2655 19.5233C10.483 19.0918 11.0092 18.9184 11.4407 19.1359C11.8722 19.3535 12.0457 19.8797 11.8281 20.3112L10.5084 22.9288C10.3352 23.2864 10.0441 23.5736 9.68375 23.7418C9.32197 23.9106 8.91296 23.9489 8.52622 23.8504C5.74203 23.1679 3.29083 21.9764 1.48179 20.4023L1.47726 20.3984C1.22486 20.1757 1.04157 19.8853 0.949102 19.5617C0.856654 19.2381 0.858855 18.8948 0.955443 18.5725C0.955418 18.5726 0.955467 18.5724 0.955443 18.5725L4.66185 6.1959C4.73581 5.94014 4.86824 5.70504 5.04871 5.50921C5.22726 5.31546 5.44795 5.16545 5.69366 5.07071C6.78554 4.62346 7.91456 4.27288 9.06775 4.02302C9.48987 3.93107 9.93108 3.99749 10.3074 4.20969C10.6844 4.42221 10.9698 4.76607 11.1094 5.17566L11.112 5.18324L11.976 7.79732C12.1277 8.25615 11.8787 8.75106 11.4198 8.90272C10.961 9.05439 10.4661 8.80538 10.3144 8.34654L9.45263 5.73932C9.45169 5.73711 9.45005 5.73527 9.44794 5.73408Z" fill="white"/>
</svg>
