<svg width="28" height="28" viewBox="0 0 28 28" fill="none" xmlns="http://www.w3.org/2000/svg">
<path fill-rule="evenodd" clip-rule="evenodd" d="M11.8371 9.72854C12.1216 9.57627 12.4669 9.59296 12.7354 9.77196L17.9854 13.272C18.2288 13.4342 18.375 13.7074 18.375 14C18.375 14.2926 18.2288 14.5658 17.9854 14.728L12.7354 18.228C12.4669 18.407 12.1216 18.4237 11.8371 18.2715C11.5526 18.1192 11.375 17.8227 11.375 17.5V10.5C11.375 10.1773 11.5526 9.8808 11.8371 9.72854ZM13.125 12.135V15.865L15.9226 14L13.125 12.135Z" fill="white"/>
<path fill-rule="evenodd" clip-rule="evenodd" d="M13.9987 4.41874L13.9839 4.4187L13.929 4.41873C13.8813 4.41883 13.8119 4.41918 13.7227 4.42013C13.5445 4.42202 13.2874 4.42631 12.968 4.43589C12.3298 4.45505 11.4402 4.49543 10.4332 4.58045C8.44141 4.74861 5.90562 5.09762 3.95332 5.84357L3.94046 5.8486C3.55697 6.00211 3.21492 6.24359 2.94191 6.55358C2.66889 6.86356 2.47255 7.23337 2.36872 7.63318L2.36787 7.63648C2.09539 8.70271 1.75 10.6799 1.75 14C1.75 17.3201 2.09539 19.2973 2.36787 20.3635L2.36872 20.3668C2.47255 20.7666 2.66889 21.1364 2.94191 21.4464C3.21492 21.7564 3.55697 21.9979 3.94046 22.1514L3.95332 22.1564C5.90562 22.9024 8.44141 23.2514 10.4332 23.4196C11.4402 23.5046 12.3298 23.545 12.968 23.5641C13.2874 23.5737 13.5445 23.578 13.7227 23.5799C13.8119 23.5808 13.8813 23.5812 13.929 23.5813L13.9839 23.5813L13.9987 23.5813H14.0013L14.0161 23.5813L14.071 23.5813C14.1187 23.5812 14.1881 23.5808 14.2773 23.5799C14.4555 23.578 14.7126 23.5737 15.032 23.5641C15.6702 23.545 16.5598 23.5046 17.5668 23.4196C19.5586 23.2514 22.0944 22.9024 24.0467 22.1564L24.0595 22.1514C24.443 21.9979 24.7851 21.7564 25.0581 21.4464C25.3311 21.1364 25.5274 20.7666 25.6313 20.3668L25.6321 20.3635C25.9046 19.2973 26.25 17.3201 26.25 14C26.25 10.6799 25.9046 8.70271 25.6321 7.63648L25.6313 7.63318C25.5274 7.23337 25.3311 6.86356 25.0581 6.55358C24.7851 6.24359 24.443 6.00211 24.0595 5.8486L24.0467 5.84357C22.0944 5.09762 19.5586 4.74861 17.5668 4.58045C16.5598 4.49543 15.6702 4.45505 15.032 4.43589C14.7126 4.42631 14.4555 4.42202 14.2773 4.42013C14.1881 4.41918 14.1187 4.41883 14.071 4.41873L14.0161 4.4187L14.0013 4.41874H13.9987ZM13.9954 21.8313L14.0047 21.8312L14.0075 21.8313L14.019 21.8313L14.0671 21.8313C14.1101 21.8312 14.1747 21.8309 14.2587 21.83C14.4268 21.8282 14.6725 21.8241 14.9795 21.8149C15.5939 21.7965 16.451 21.7575 17.4196 21.6758C19.3761 21.5106 21.7036 21.1767 23.4147 20.5245C23.5413 20.4728 23.6544 20.3925 23.7448 20.2898C23.8363 20.186 23.9021 20.0622 23.9371 19.9283C24.1677 19.0251 24.5 17.1964 24.5 14C24.5 10.8036 24.1677 8.97486 23.9371 8.07168C23.9021 7.93784 23.8363 7.81405 23.7448 7.71022C23.6544 7.6075 23.5413 7.52716 23.4147 7.47548C21.7036 6.82329 19.3761 6.48943 17.4196 6.32424C16.451 6.24247 15.5939 6.20355 14.9795 6.18511C14.6725 6.17589 14.4268 6.17181 14.2587 6.17003C14.1747 6.16914 14.1101 6.16882 14.0671 6.16872L14.019 6.1687L14.0075 6.16873L14.005 6.16874L13.9953 6.16879L13.9925 6.16873L13.981 6.1687L13.9329 6.16872C13.8899 6.16882 13.8253 6.16914 13.7413 6.17003C13.5732 6.17181 13.3275 6.17589 13.0205 6.18511C12.4061 6.20355 11.549 6.24247 10.5804 6.32424C8.62391 6.48943 6.29641 6.8233 4.58534 7.47548C4.45866 7.52717 4.34564 7.6075 4.25518 7.71022C4.16374 7.81404 4.09788 7.93784 4.06289 8.07168C3.83227 8.97487 3.5 10.8036 3.5 14C3.5 17.1964 3.83227 19.0251 4.06289 19.9283C4.09788 20.0622 4.16373 20.186 4.25518 20.2898C4.34564 20.3925 4.45866 20.4728 4.58533 20.5245C6.29641 21.1767 8.62391 21.5106 10.5804 21.6758C11.549 21.7575 12.4061 21.7965 13.0205 21.8149C13.3275 21.8241 13.5732 21.8282 13.7413 21.83C13.8253 21.8309 13.8899 21.8312 13.9329 21.8313L13.981 21.8313L13.9925 21.8313L13.9954 21.8313Z" fill="white"/>
</svg>
