<svg width="28" height="28" viewBox="0 0 28 28" fill="none" xmlns="http://www.w3.org/2000/svg">
<path fill-rule="evenodd" clip-rule="evenodd" d="M14 10.5C12.067 10.5 10.5 12.067 10.5 14C10.5 15.933 12.067 17.5 14 17.5C15.933 17.5 17.5 15.933 17.5 14C17.5 12.067 15.933 10.5 14 10.5ZM8.75 14C8.75 11.1005 11.1005 8.75 14 8.75C16.8995 8.75 19.25 11.1005 19.25 14C19.25 16.8995 16.8995 19.25 14 19.25C11.1005 19.25 8.75 16.8995 8.75 14Z" fill="white" fill-opacity="0.2"/>
<path fill-rule="evenodd" clip-rule="evenodd" d="M9.1875 4.8125C6.77125 4.8125 4.8125 6.77125 4.8125 9.1875V18.8125C4.8125 21.2287 6.77125 23.1875 9.1875 23.1875H18.8125C21.2287 23.1875 23.1875 21.2287 23.1875 18.8125V9.1875C23.1875 6.77125 21.2287 4.8125 18.8125 4.8125H9.1875ZM3.0625 9.1875C3.0625 5.80476 5.80476 3.0625 9.1875 3.0625H18.8125C22.1952 3.0625 24.9375 5.80476 24.9375 9.1875V18.8125C24.9375 22.1952 22.1952 24.9375 18.8125 24.9375H9.1875C5.80476 24.9375 3.0625 22.1952 3.0625 18.8125V9.1875Z" fill="white" fill-opacity="0.2"/>
<path d="M19.6875 9.625C20.4124 9.625 21 9.03737 21 8.3125C21 7.58763 20.4124 7 19.6875 7C18.9626 7 18.375 7.58763 18.375 8.3125C18.375 9.03737 18.9626 9.625 19.6875 9.625Z" fill="white" fill-opacity="0.2"/>
</svg>
