<svg width="28" height="28" viewBox="0 0 28 28" fill="none" xmlns="http://www.w3.org/2000/svg">
<path fill-rule="evenodd" clip-rule="evenodd" d="M3.0625 4.8125C3.0625 3.846 3.846 3.0625 4.8125 3.0625H23.1875C24.154 3.0625 24.9375 3.846 24.9375 4.8125V23.1875C24.9375 24.154 24.154 24.9375 23.1875 24.9375H4.8125C3.846 24.9375 3.0625 24.154 3.0625 23.1875V4.8125ZM23.1875 4.8125H4.8125V23.1875H23.1875V4.8125Z" fill="white"/>
<path fill-rule="evenodd" clip-rule="evenodd" d="M13.125 11.375C13.6082 11.375 14 11.7668 14 12.25V19.25C14 19.7332 13.6082 20.125 13.125 20.125C12.6418 20.125 12.25 19.7332 12.25 19.25V12.25C12.25 11.7668 12.6418 11.375 13.125 11.375Z" fill="white"/>
<path fill-rule="evenodd" clip-rule="evenodd" d="M9.625 11.375C10.1082 11.375 10.5 11.7668 10.5 12.25V19.25C10.5 19.7332 10.1082 20.125 9.625 20.125C9.14175 20.125 8.75 19.7332 8.75 19.25V12.25C8.75 11.7668 9.14175 11.375 9.625 11.375Z" fill="white"/>
<path fill-rule="evenodd" clip-rule="evenodd" d="M16.1875 13.125C15.6073 13.125 15.0509 13.3555 14.6407 13.7657C14.2305 14.1759 14 14.7323 14 15.3125C14 15.7957 13.6082 16.1875 13.125 16.1875C12.6418 16.1875 12.25 15.7957 12.25 15.3125C12.25 14.2682 12.6648 13.2667 13.4033 12.5283C14.1417 11.7898 15.1432 11.375 16.1875 11.375C17.2318 11.375 18.2333 11.7898 18.9717 12.5283C19.7102 13.2667 20.125 14.2682 20.125 15.3125V19.25C20.125 19.7332 19.7332 20.125 19.25 20.125C18.7668 20.125 18.375 19.7332 18.375 19.25V15.3125C18.375 14.7323 18.1445 14.1759 17.7343 13.7657C17.3241 13.3555 16.7677 13.125 16.1875 13.125Z" fill="white"/>
<path d="M9.625 10.0625C10.3499 10.0625 10.9375 9.47487 10.9375 8.75C10.9375 8.02513 10.3499 7.4375 9.625 7.4375C8.90013 7.4375 8.3125 8.02513 8.3125 8.75C8.3125 9.47487 8.90013 10.0625 9.625 10.0625Z" fill="white"/>
</svg>
