<svg width="193" height="19" viewBox="0 0 193 19" fill="none" xmlns="http://www.w3.org/2000/svg">
<path d="M0.452393 6.00886C0.527783 5.84391 0.603174 5.67896 0.71626 5.53757C0.565479 5.67896 0.490088 5.84391 0.452393 6.00886ZM9.76313 1.24876C10.1024 1.2252 10.404 1.22519 10.7432 1.22519C10.8186 1.22519 10.894 1.22519 10.9694 1.22519C10.5547 1.20163 10.1778 1.20163 9.76313 1.24876ZM17.8299 2.87474C18.0938 3.03969 18.3954 3.18108 18.6215 3.3696C18.3954 3.18108 18.1315 3.01612 17.8299 2.87474Z" fill="#1B70F1"/>
<path d="M16.0959 9.87377L20.0539 11.3112C18.1314 13.3849 14.5881 14.681 10.7432 14.681C4.825 14.681 0 11.6411 0 7.96502C0 7.3052 0.150781 6.64538 0.452344 6.0327C0.527734 5.86774 0.603125 5.70279 0.716211 5.5614C0.980078 5.27862 1.35703 5.0194 1.92246 4.87801C2.18633 4.80732 2.4502 4.76019 2.71406 4.71306C2.94023 3.51125 4.22188 2.96926 5.91816 2.71005C6.18203 2.66292 6.48359 2.56866 6.67207 2.42727C7.61445 1.79102 8.66992 1.39041 9.76309 1.27259C10.1023 1.24902 10.4039 1.24902 10.7432 1.24902C10.8186 1.24902 10.8939 1.24902 10.9693 1.24902C11.9871 1.31972 13.0426 1.6025 14.0227 2.14449C14.2488 2.26231 14.6258 2.33301 14.9273 2.33301C16.0959 2.35657 17.076 2.54509 17.8299 2.89857C18.0937 3.06352 18.3953 3.20491 18.6215 3.39343C19.1492 3.77046 19.6393 4.17107 20.0539 4.6188L19.6016 4.78376L17.3398 5.60853C16.8875 5.58496 16.4352 5.51427 15.9828 5.4907C15.7943 5.46714 15.6059 5.46714 15.4174 5.4907C15.1912 5.32575 14.965 5.18436 14.7012 5.04297C15.0781 4.99584 15.5305 4.99584 15.9828 5.01941C16.6613 5.06653 16.9629 4.85445 16.6613 4.45385C16.5105 4.2182 16.2467 4.00611 16.0205 3.7469C16.8875 3.91185 16.9629 3.93542 17.6037 4.71306C17.8299 4.97227 18.1314 5.18436 18.5461 5.01941C18.81 4.92515 18.9984 4.59524 18.923 4.38315C18.6969 3.55838 16.699 2.68648 15.3797 2.8043C15.1912 2.82787 14.8896 3.01639 14.8896 3.13421C14.8896 4.24176 14.8896 4.24176 13.3441 4.45385L13.3064 4.47741C13.0803 4.40672 12.8164 4.33602 12.5525 4.28889C12.3641 3.46412 11.9117 3.32273 10.9693 2.61579C11.3463 2.68648 11.7232 2.75718 12.0248 2.89857C12.4018 3.08708 12.7033 3.36986 13.0803 3.58195C13.3064 3.69977 13.6834 3.72334 13.985 3.79403C14.0603 3.58195 14.2488 3.36986 14.1734 3.18134C13.7965 2.38014 12.8164 1.9324 11.5348 1.76745C10.2531 1.6025 9.04687 1.69675 8.0291 2.28588C7.87832 2.35657 7.80293 2.4744 7.84062 2.45083C8.66992 2.78074 9.57461 3.01639 10.2154 3.44056C10.517 3.65264 10.7432 3.86473 10.8939 4.12394C10.8562 4.12394 10.7809 4.12394 10.7055 4.12394C10.4793 4.12394 10.2154 4.12394 9.98926 4.14751C9.72539 3.77047 9.27305 3.46412 8.70762 3.2756C7.38828 2.875 5.20195 3.06352 4.10879 3.67621C3.50566 4.00612 3.2418 4.40672 3.50566 4.87801C3.58105 5.0194 3.95801 5.18436 4.22187 5.20792C5.01348 5.27862 5.46582 4.94871 5.91816 4.59524C5.99355 4.54811 5.99355 4.45385 6.03125 4.33602H4.67422C5.91816 3.65264 7.16211 3.77046 8.25527 4.45385C8.0291 4.52454 7.80293 4.57167 7.61445 4.66593C7.2375 4.47741 6.93594 4.45385 6.59668 4.78376C6.37051 4.99584 6.10664 5.18436 5.80508 5.37288C4.97578 5.89131 3.92031 5.8913 3.01562 5.39644C2.86484 5.30218 2.4502 5.25505 2.33711 5.32575C1.99785 5.46714 1.54551 5.70279 1.54551 5.8913C1.54551 6.15052 1.88477 6.45686 2.22402 6.62182C2.97793 6.95173 3.92031 6.90459 4.71191 6.64538C4.825 6.62182 4.90039 6.57469 5.01348 6.55112C4.74961 6.92816 4.59883 7.32876 4.56113 7.75293C4.56113 7.84719 4.56113 7.94145 4.56113 8.03571C4.56113 10.1801 7.35059 11.9004 10.7432 11.9004C13.0426 11.8061 15.0404 11.0284 16.0959 9.87377Z" fill="#1B70F1"/>
<path d="M32.9029 4.92509L31.6213 8.15348C31.3951 8.08279 31.1312 8.01209 30.7543 7.94139C30.3773 7.89426 30.0004 7.8707 29.6234 7.8707C29.2088 7.8707 28.7941 7.91783 28.4172 8.01209C28.0402 8.10635 27.7387 8.24774 27.4748 8.41269C27.2109 8.57765 27.0225 8.78973 26.8717 9.02538C26.7209 9.26103 26.6455 9.52024 26.6455 9.80302V14.681H21.9336V4.94865H26.3816L26.4947 6.43324C26.6078 6.31542 26.7586 6.19759 26.8717 6.07977C27.3994 5.6556 28.0402 5.32569 28.7564 5.09005C29.4727 4.8544 30.2643 4.73657 31.0559 4.73657C31.3951 4.73657 31.7344 4.76014 32.0359 4.7837C32.3752 4.83083 32.6391 4.87796 32.9029 4.92509Z" fill="#1B70F1"/>
<path d="M51.1878 4.94862L44.5534 14.6573L41.8771 18.8755H37.2405L40.2938 14.3981L33.3579 4.94862H38.6353L41.9147 9.82655C42.1032 10.0622 42.254 10.3214 42.4048 10.6042C42.4802 10.6984 42.5179 10.7927 42.5556 10.887C42.7063 10.6278 42.8194 10.3685 43.0079 10.0622L45.8728 4.92505H51.1878V4.94862Z" fill="#1B70F1"/>
<path d="M68.7537 7.18719C68.1505 6.43312 67.3212 5.84399 66.3035 5.41983C65.2857 4.99566 64.0794 4.76001 62.7601 4.76001C61.8554 4.76001 61.0261 4.85427 60.1968 5.06635C59.3675 5.27844 58.7267 5.53765 58.199 5.86756C58.1236 5.91469 58.0482 5.96182 58.0105 6.00895L57.9351 4.94853H53.4871V18.6869H58.199V13.6675C58.7644 14.021 59.4052 14.3038 60.2345 14.4923C61.0261 14.7044 61.8554 14.7986 62.7601 14.7986C64.1171 14.7986 65.3234 14.5866 66.3412 14.1624C67.3966 13.7382 68.1882 13.1491 68.7914 12.3715C69.3945 11.6174 69.696 10.7455 69.696 9.75576C69.6207 8.81317 69.3191 7.94127 68.7537 7.18719ZM64.6072 11.1697C64.3056 11.5467 63.891 11.8295 63.3632 12.0651C62.8355 12.2772 62.2324 12.3715 61.5162 12.3715C60.8 12.3715 60.1591 12.2772 59.6314 12.0651C59.1037 11.853 58.689 11.5703 58.3875 11.1697C58.0859 10.7691 57.9351 10.3449 57.9351 9.8029C57.9351 9.28447 58.0859 8.83673 58.3875 8.4597C58.689 8.08266 59.1037 7.77632 59.6314 7.56423C60.1591 7.35215 60.8 7.25789 61.5162 7.25789C62.2324 7.25789 62.8732 7.35215 63.3632 7.56423C63.891 7.77632 64.2679 8.08266 64.5695 8.4597C64.871 8.83673 65.0218 9.28447 65.0218 9.8029C65.0595 10.3213 64.9087 10.7691 64.6072 11.1697Z" fill="#1B70F1"/>
<path d="M81.7209 4.94855V5.20776C81.4193 5.44341 81.1555 5.67906 80.9293 5.93827C80.4393 6.43314 80.0623 6.95156 79.7984 7.51712H78.7053V14.6808H74.031V7.51712H71.2793V4.94855H74.031V2.4978H78.7053V4.94855H81.7209Z" fill="#1B70F1"/>
<path d="M91.5569 14.8458C89.936 14.8458 88.5036 14.6337 87.222 14.186C85.978 13.7382 84.9603 13.1491 84.244 12.395C83.5278 11.641 83.1509 10.7691 83.1509 9.8029C83.1509 8.83674 83.5278 7.96484 84.244 7.21076C84.9603 6.45668 85.978 5.86756 87.222 5.41983C88.4659 4.97209 89.936 4.76001 91.5569 4.76001C93.1778 4.76001 94.6102 4.97209 95.8919 5.41983C97.1358 5.86756 98.1536 6.45668 98.8698 7.21076C99.586 7.96484 99.963 8.83674 99.963 9.8029C99.963 10.7691 99.586 11.641 98.8698 12.395C98.1536 13.1491 97.1735 13.7382 95.8919 14.186C94.6102 14.6337 93.1778 14.8458 91.5569 14.8458ZM91.5569 12.3243C92.2731 12.3243 92.8763 12.2065 93.4417 11.9944C93.9694 11.7823 94.4218 11.476 94.7233 11.099C95.0249 10.7219 95.1757 10.2978 95.1757 9.8029C95.2134 9.30803 95.0626 8.88386 94.7233 8.48326C94.4218 8.10622 93.9694 7.79988 93.4417 7.5878C92.914 7.37571 92.2731 7.25789 91.5569 7.25789C90.8407 7.25789 90.2376 7.37571 89.6722 7.5878C89.1067 7.79988 88.6921 8.10622 88.3528 8.48326C88.0513 8.8603 87.9005 9.30803 87.9005 9.8029C87.8628 10.2978 88.0136 10.7219 88.3528 11.099C88.6544 11.476 89.1067 11.7823 89.6722 11.9944C90.2376 12.2065 90.8407 12.3243 91.5569 12.3243Z" fill="#1B70F1"/>
<path d="M117.27 9.28451C116.893 8.83677 116.366 8.45974 115.725 8.1534C115.272 7.94131 114.782 7.79992 114.255 7.6821C114.933 7.49358 115.499 7.2108 115.913 6.85733C116.479 6.36247 116.78 5.74978 116.78 5.01927C116.78 4.35945 116.554 3.79389 116.026 3.3226C115.536 2.8513 114.782 2.49783 113.802 2.23861C112.822 1.9794 111.654 1.86157 110.221 1.86157H101.174V5.04283C101.551 5.32561 101.891 5.63195 102.192 5.96186C103.285 7.09298 103.851 8.38904 103.851 9.80294C103.851 11.2168 103.323 12.5129 102.23 13.644C101.928 13.9739 101.589 14.2803 101.174 14.563V14.6573H110.523C111.578 14.6573 112.596 14.5866 113.463 14.4217C114.368 14.2567 115.122 14.021 115.8 13.6911C116.479 13.3612 116.969 12.9606 117.308 12.4658C117.647 11.9945 117.836 11.4289 117.836 10.7691C117.836 10.2271 117.647 9.73224 117.27 9.28451ZM105.849 4.45371H109.317C110.183 4.45371 110.824 4.57153 111.239 4.80718C111.654 5.04283 111.88 5.34918 111.88 5.72621C111.88 5.98543 111.804 6.22107 111.616 6.40959C111.427 6.59811 111.164 6.7395 110.787 6.85733C110.41 6.95159 109.995 6.99871 109.467 6.99871H105.811V4.45371H105.849ZM112.596 11.4289C112.37 11.641 112.106 11.8059 111.691 11.9002C111.314 12.018 110.824 12.0652 110.297 12.0652H105.811V9.30807H110.146C110.711 9.30807 111.201 9.3552 111.616 9.44946C112.031 9.54372 112.332 9.70868 112.558 9.89719C112.784 10.0857 112.898 10.3214 112.898 10.6041C112.935 10.9576 112.822 11.2168 112.596 11.4289Z" fill="white"/>
<path d="M132.157 4.92496L130.876 8.15335C130.65 8.08266 130.386 8.01196 130.009 7.94127C129.632 7.87057 129.292 7.87057 128.878 7.87057C128.463 7.87057 128.049 7.9177 127.672 8.01196C127.295 8.10622 126.993 8.24761 126.729 8.41257C126.465 8.57752 126.277 8.78961 126.126 9.02525C125.975 9.2609 125.9 9.52012 125.9 9.8029V14.6808H121.188V4.94853H125.636L125.749 6.43312C125.862 6.31529 125.975 6.19747 126.126 6.10321C126.654 5.67904 127.295 5.34913 128.011 5.11348C128.727 4.87783 129.519 4.76001 130.31 4.76001C130.65 4.76001 130.989 4.78357 131.29 4.80714C131.592 4.8307 131.893 4.87783 132.157 4.92496Z" fill="white"/>
<path d="M144.371 4.94865V6.1269C144.069 5.89125 143.767 5.67916 143.39 5.51421C142.938 5.27856 142.373 5.09004 141.77 4.94865C141.166 4.80727 140.488 4.73657 139.734 4.73657C138.377 4.73657 137.171 4.94866 136.115 5.37282C135.06 5.79699 134.23 6.40968 133.627 7.16375C133.024 7.91783 132.723 8.78973 132.723 9.77946C132.723 10.7456 133.024 11.6175 133.627 12.3716C134.23 13.1257 135.06 13.7384 136.078 14.1625C137.095 14.5867 138.264 14.7988 139.583 14.7988C140.299 14.7988 140.94 14.7281 141.581 14.6103C142.222 14.4689 142.787 14.3039 143.277 14.0683C143.654 13.9033 143.994 13.6912 144.257 13.5027V14.6574H149.007V4.94865H144.371ZM143.994 11.1698C143.692 11.5468 143.277 11.8532 142.75 12.0653C142.222 12.2773 141.581 12.3716 140.865 12.3716C140.149 12.3716 139.546 12.2773 139.055 12.0653C138.528 11.8532 138.113 11.5704 137.849 11.1698C137.548 10.7927 137.397 10.345 137.397 9.80302C137.397 9.2846 137.548 8.83686 137.849 8.43626C138.151 8.05922 138.528 7.75288 139.055 7.54079C139.546 7.32871 140.186 7.23445 140.865 7.23445C141.581 7.23445 142.222 7.32871 142.75 7.54079C143.277 7.75288 143.692 8.05922 143.994 8.43626C144.295 8.8133 144.446 9.2846 144.446 9.80302C144.446 10.3215 144.295 10.7692 143.994 11.1698Z" fill="white"/>
<path d="M155.754 3.03987C154.887 3.03987 154.171 2.89848 153.681 2.63927C153.191 2.38005 152.927 2.00301 152.927 1.50815C152.927 1.06042 153.191 0.706947 153.681 0.424169C154.171 0.14139 154.887 0 155.717 0C156.584 0 157.262 0.141389 157.752 0.400602C158.242 0.659816 158.468 1.03685 158.468 1.50815C158.468 1.95588 158.205 2.33292 157.715 2.6157C157.225 2.89848 156.621 3.03987 155.754 3.03987ZM153.417 14.6809V4.94863H158.129V14.6574H153.417V14.6809Z" fill="white"/>
<path d="M177.168 8.69547V14.6574H172.456V8.95469C172.456 8.55408 172.381 8.24774 172.192 7.98852C172.004 7.72931 171.74 7.54079 171.401 7.42297C171.024 7.30514 170.609 7.23445 170.081 7.25801C169.667 7.25801 169.29 7.30514 168.95 7.37584C168.611 7.44653 168.31 7.56436 168.046 7.72931C167.782 7.8707 167.593 8.05922 167.443 8.24774C167.292 8.43626 167.216 8.64834 167.216 8.88399V14.7045H162.542V4.94865H166.99L167.066 6.15047C167.141 6.07977 167.254 6.00907 167.33 5.93838C167.895 5.58491 168.573 5.27856 169.327 5.06648C170.119 4.8544 170.911 4.73657 171.778 4.73657C172.946 4.73657 173.926 4.87796 174.718 5.1843C175.509 5.49065 176.113 5.93838 176.527 6.5275C176.98 7.11662 177.168 7.84713 177.168 8.69547Z" fill="white"/>
<path d="M186.325 14.8458C184.818 14.8458 183.461 14.7044 182.292 14.398C181.123 14.0917 180.219 13.6911 179.54 13.1727L182.367 11.641C182.971 12.018 183.649 12.3008 184.403 12.4657C185.157 12.6542 185.873 12.7249 186.552 12.7249C186.815 12.7249 187.079 12.7014 187.268 12.6778C187.494 12.6307 187.645 12.5836 187.796 12.5129C187.946 12.4422 188.059 12.3715 188.135 12.2772C188.21 12.1829 188.248 12.0887 188.248 11.9473C188.248 11.7117 188.059 11.5231 187.72 11.3817C187.532 11.311 187.268 11.2404 186.853 11.1697C186.439 11.0754 185.911 10.9811 185.27 10.8869C184.365 10.7455 183.574 10.557 182.895 10.3685C182.217 10.1564 181.651 9.92072 181.237 9.6615C180.86 9.40229 180.558 9.11951 180.332 8.81317C180.106 8.50682 179.993 8.15335 179.993 7.75275C179.993 7.30502 180.181 6.88085 180.52 6.52738C180.86 6.15034 181.312 5.84399 181.877 5.58478C182.443 5.32557 183.121 5.11349 183.875 4.9721C184.629 4.83071 185.421 4.76001 186.212 4.76001C187.079 4.76001 187.909 4.83071 188.663 4.94853C189.454 5.06635 190.17 5.23131 190.849 5.46696C191.527 5.67904 192.131 5.93825 192.658 6.2446L190.208 7.96483C189.869 7.75275 189.454 7.56423 189.04 7.39928C188.587 7.23432 188.135 7.09293 187.682 6.99867C187.23 6.90441 186.778 6.85729 186.401 6.85729C186.099 6.85729 185.835 6.88085 185.609 6.90441C185.383 6.92798 185.195 6.97511 185.044 7.0458C184.893 7.1165 184.78 7.18719 184.705 7.28145C184.629 7.37571 184.591 7.46997 184.591 7.61136C184.591 7.72919 184.629 7.84701 184.742 7.96483C184.855 8.08266 185.006 8.17692 185.195 8.24761C185.383 8.31831 185.685 8.41257 186.137 8.48326C186.552 8.57752 187.155 8.69534 187.909 8.81317C188.813 8.97812 189.605 9.14308 190.283 9.35516C190.962 9.54368 191.49 9.77933 191.867 10.0621C192.168 10.2742 192.394 10.5098 192.583 10.7926C192.734 11.0754 192.809 11.3582 192.809 11.6881C192.809 12.3008 192.545 12.8663 191.98 13.3376C191.414 13.8089 190.66 14.2095 189.68 14.4687C188.7 14.728 187.569 14.8458 186.325 14.8458Z" fill="white"/>
</svg>
