<svg width="150" height="24" viewBox="0 0 150 24" fill="none" xmlns="http://www.w3.org/2000/svg">
<path d="M0.351562 7.47041C0.410156 7.26534 0.46875 7.06026 0.556641 6.88448C0.439453 7.06026 0.380859 7.26534 0.351562 7.47041ZM7.58789 1.55245C7.85156 1.52315 8.08594 1.52315 8.34961 1.52315C8.4082 1.52315 8.4668 1.52315 8.52539 1.52315C8.20312 1.49385 7.91016 1.49385 7.58789 1.55245ZM13.8574 3.57393C14.0625 3.77901 14.2969 3.95479 14.4727 4.18917C14.2969 3.95479 14.0918 3.74971 13.8574 3.57393Z" fill="#1B70F1"/>
<path d="M12.5098 12.2754L15.5859 14.0625C14.0918 16.6406 11.3379 18.252 8.34961 18.252C3.75 18.252 0 14.4727 0 9.90235C0 9.08203 0.117188 8.26172 0.351562 7.5C0.410156 7.29492 0.46875 7.08985 0.556641 6.91406C0.761719 6.5625 1.05469 6.24023 1.49414 6.06445C1.69922 5.97656 1.9043 5.91797 2.10938 5.85938C2.28516 4.36523 3.28125 3.69141 4.59961 3.36914C4.80469 3.31055 5.03906 3.19336 5.18555 3.01758C5.91797 2.22656 6.73828 1.72851 7.58789 1.58203C7.85156 1.55273 8.08594 1.55273 8.34961 1.55273C8.4082 1.55273 8.4668 1.55273 8.52539 1.55273C9.31641 1.64063 10.1367 1.99219 10.8984 2.66602C11.0742 2.8125 11.3672 2.90039 11.6016 2.90039C12.5098 2.92969 13.2715 3.16406 13.8574 3.60352C14.0625 3.80859 14.2969 3.98437 14.4727 4.21875C14.8828 4.6875 15.2637 5.18555 15.5859 5.74219L15.2344 5.94727L13.4766 6.97266C13.125 6.94336 12.7734 6.85547 12.4219 6.82617C12.2754 6.79688 12.1289 6.79688 11.9824 6.82617C11.8066 6.6211 11.6309 6.44531 11.4258 6.26953C11.7188 6.21094 12.0703 6.21094 12.4219 6.24024C12.9492 6.29883 13.1836 6.03515 12.9492 5.53711C12.832 5.24414 12.627 4.98047 12.4512 4.6582C13.125 4.86328 13.1836 4.89258 13.6816 5.85938C13.8574 6.18164 14.0918 6.44531 14.4141 6.24024C14.6191 6.12305 14.7656 5.71289 14.707 5.44922C14.5312 4.42383 12.9785 3.33984 11.9531 3.48633C11.8066 3.51562 11.5723 3.75 11.5723 3.89649C11.5723 5.27344 11.5723 5.27344 10.3711 5.53711L10.3418 5.56641C10.166 5.47852 9.96094 5.39062 9.75586 5.33203C9.60938 4.30664 9.25781 4.13086 8.52539 3.25195C8.81836 3.33985 9.11133 3.42773 9.3457 3.60352C9.63867 3.83789 9.87305 4.18945 10.166 4.45312C10.3418 4.59961 10.6348 4.62891 10.8691 4.7168C10.9277 4.45313 11.0742 4.18945 11.0156 3.95508C10.7227 2.95898 9.96094 2.40234 8.96484 2.19726C7.96875 1.99219 7.03125 2.10937 6.24023 2.8418C6.12305 2.92969 6.06445 3.07617 6.09375 3.04687C6.73828 3.45703 7.44141 3.75 7.93945 4.27735C8.17383 4.54102 8.34961 4.80469 8.4668 5.12695C8.4375 5.12695 8.37891 5.12695 8.32031 5.12695C8.14453 5.12695 7.93945 5.12696 7.76367 5.15625C7.55859 4.6875 7.20703 4.30664 6.76758 4.07226C5.74219 3.57422 4.04297 3.8086 3.19336 4.57031C2.72461 4.98047 2.51953 5.47852 2.72461 6.06445C2.7832 6.24023 3.07617 6.44531 3.28125 6.47461C3.89648 6.5625 4.24805 6.15234 4.59961 5.71289C4.6582 5.6543 4.6582 5.53711 4.6875 5.39062H3.63281C4.59961 4.54101 5.56641 4.6875 6.41602 5.53711C6.24023 5.625 6.06445 5.6836 5.91797 5.80078C5.625 5.56641 5.39062 5.53711 5.12695 5.94727C4.95117 6.21094 4.74609 6.44531 4.51172 6.67969C3.86719 7.32422 3.04688 7.32422 2.34375 6.70898C2.22656 6.5918 1.9043 6.53321 1.81641 6.6211C1.55273 6.79688 1.20117 7.08984 1.20117 7.32422C1.20117 7.64649 1.46484 8.02735 1.72852 8.23242C2.31445 8.64258 3.04688 8.58398 3.66211 8.26172C3.75 8.23242 3.80859 8.17383 3.89648 8.14453C3.69141 8.61328 3.57422 9.11133 3.54492 9.63867C3.54492 9.75586 3.54492 9.87305 3.54492 9.99024C3.54492 12.6563 5.71289 14.7949 8.34961 14.7949C10.1367 14.6777 11.6895 13.7109 12.5098 12.2754Z" fill="#1B70F1"/>
<path d="M25.5723 6.12304L24.5762 10.1367C24.4004 10.0488 24.1953 9.96094 23.9023 9.87305C23.6094 9.81445 23.3164 9.78515 23.0234 9.78515C22.7012 9.78515 22.3789 9.84375 22.0859 9.96094C21.793 10.0781 21.5586 10.2539 21.3535 10.459C21.1484 10.6641 21.002 10.9277 20.8848 11.2207C20.7676 11.5137 20.709 11.8359 20.709 12.1875V18.252H17.0469V6.15234H20.5039L20.5918 7.99805C20.6797 7.85156 20.7969 7.70508 20.8848 7.55859C21.2949 7.03125 21.793 6.62109 22.3496 6.32813C22.9062 6.03516 23.5215 5.88867 24.1367 5.88867C24.4004 5.88867 24.6641 5.91797 24.8984 5.94726C25.1621 6.00586 25.3672 6.06445 25.5723 6.12304Z" fill="#1B70F1"/>
<path d="M39.7832 6.15235L34.627 18.2227L32.5469 23.4668H28.9434L31.3164 17.9004L25.9258 6.15235H30.0273L32.5762 12.2168C32.7227 12.5098 32.8398 12.832 32.957 13.1836C33.0156 13.3008 33.0449 13.418 33.0742 13.5352C33.1914 13.2129 33.2793 12.8906 33.4258 12.5098L35.6523 6.12305H39.7832V6.15235Z" fill="#1B70F1"/>
<path d="M53.4355 8.93555C52.9668 7.99805 52.3223 7.26563 51.5312 6.73828C50.7402 6.21094 49.8027 5.91797 48.7773 5.91797C48.0742 5.91797 47.4297 6.03516 46.7852 6.29883C46.1406 6.5625 45.6426 6.88476 45.2324 7.29492C45.1738 7.35352 45.1152 7.41211 45.0859 7.4707L45.0273 6.15234H41.5703V23.2324H45.2324V16.9922C45.6719 17.4316 46.1699 17.7832 46.8145 18.0176C47.4297 18.2813 48.0742 18.3984 48.7773 18.3984C49.832 18.3984 50.7695 18.1348 51.5605 17.6074C52.3809 17.0801 52.9961 16.3477 53.4648 15.3809C53.9336 14.4434 54.168 13.3594 54.168 12.1289C54.1094 10.957 53.875 9.87305 53.4355 8.93555ZM50.2129 13.8867C49.9785 14.3555 49.6563 14.707 49.2461 15C48.8359 15.2637 48.3672 15.3809 47.8105 15.3809C47.2539 15.3809 46.7559 15.2637 46.3457 15C45.9355 14.7363 45.6133 14.3848 45.3789 13.8867C45.1445 13.3887 45.0273 12.8613 45.0273 12.1875C45.0273 11.543 45.1445 10.9863 45.3789 10.5176C45.6133 10.0488 45.9355 9.66797 46.3457 9.4043C46.7559 9.14063 47.2539 9.02344 47.8105 9.02344C48.3672 9.02344 48.8652 9.14063 49.2461 9.4043C49.6563 9.66797 49.9492 10.0488 50.1836 10.5176C50.418 10.9863 50.5352 11.543 50.5352 12.1875C50.5645 12.832 50.4473 13.3887 50.2129 13.8867Z" fill="#1B70F1"/>
<path d="M63.5137 6.15234V6.47461C63.2793 6.76758 63.0742 7.06055 62.8984 7.38281C62.5176 7.99805 62.2246 8.64258 62.0195 9.3457H61.1699V18.252H57.5371V9.3457H55.3984V6.15234H57.5371V3.10547H61.1699V6.15234H63.5137Z" fill="#1B70F1"/>
<path d="M71.1582 18.457C69.8984 18.457 68.7852 18.1934 67.7891 17.6367C66.8223 17.0801 66.0312 16.3477 65.4746 15.4102C64.918 14.4727 64.625 13.3887 64.625 12.1875C64.625 10.9863 64.918 9.90235 65.4746 8.96485C66.0312 8.02735 66.8223 7.29492 67.7891 6.73828C68.7559 6.18164 69.8984 5.91797 71.1582 5.91797C72.418 5.91797 73.5312 6.18164 74.5273 6.73828C75.4941 7.29492 76.2851 8.02735 76.8418 8.96485C77.3984 9.90235 77.6914 10.9863 77.6914 12.1875C77.6914 13.3887 77.3984 14.4727 76.8418 15.4102C76.2851 16.3477 75.5234 17.0801 74.5273 17.6367C73.5312 18.1934 72.418 18.457 71.1582 18.457ZM71.1582 15.3223C71.7148 15.3223 72.1836 15.1758 72.623 14.9121C73.0332 14.6484 73.3848 14.2676 73.6191 13.7988C73.8535 13.3301 73.9707 12.8027 73.9707 12.1875C74 11.5723 73.8828 11.0449 73.6191 10.5469C73.3848 10.0781 73.0332 9.69727 72.623 9.43359C72.2129 9.16992 71.7148 9.02344 71.1582 9.02344C70.6016 9.02344 70.1328 9.16992 69.6934 9.43359C69.2539 9.69727 68.9316 10.0781 68.668 10.5469C68.4336 11.0156 68.3164 11.5723 68.3164 12.1875C68.2871 12.8027 68.4043 13.3301 68.668 13.7988C68.9023 14.2676 69.2539 14.6484 69.6934 14.9121C70.1328 15.1758 70.6016 15.3223 71.1582 15.3223Z" fill="#1B70F1"/>
<path d="M91.1426 11.543C90.8496 10.9863 90.4395 10.5176 89.9414 10.1367C89.5898 9.87305 89.209 9.69727 88.7988 9.55078C89.3262 9.31641 89.7656 8.96485 90.0879 8.52539C90.5273 7.91016 90.7617 7.14844 90.7617 6.24024C90.7617 5.41992 90.5859 4.7168 90.1758 4.13086C89.7949 3.54493 89.209 3.10547 88.4473 2.7832C87.6855 2.46094 86.7773 2.31445 85.6641 2.31445H78.6328V6.26953C78.9258 6.62109 79.1895 7.00195 79.4238 7.41211C80.2734 8.81836 80.7129 10.4297 80.7129 12.1875C80.7129 13.9453 80.3027 15.5566 79.4531 16.9629C79.2188 17.373 78.9551 17.7539 78.6328 18.1055V18.2227H85.8984C86.7188 18.2227 87.5098 18.1348 88.1836 17.9297C88.8867 17.7246 89.4727 17.4316 90 17.0215C90.5273 16.6113 90.9082 16.1133 91.1719 15.498C91.4355 14.9121 91.582 14.209 91.582 13.3887C91.582 12.7148 91.4355 12.0996 91.1426 11.543ZM82.2656 5.53711H84.9609C85.6348 5.53711 86.1328 5.68359 86.4551 5.97656C86.7773 6.26953 86.9531 6.65039 86.9531 7.11914C86.9531 7.44141 86.8945 7.73437 86.748 7.96875C86.6016 8.20312 86.3965 8.37891 86.1035 8.52539C85.8105 8.64258 85.4883 8.70117 85.0781 8.70117H82.2363V5.53711H82.2656ZM87.5098 14.209C87.334 14.4727 87.1289 14.6777 86.8066 14.7949C86.5137 14.9414 86.1328 15 85.7227 15H82.2363V11.5723H85.6055C86.0449 11.5723 86.4258 11.6309 86.748 11.748C87.0703 11.8652 87.3047 12.0703 87.4805 12.3047C87.6563 12.5391 87.7441 12.832 87.7441 13.1836C87.7734 13.623 87.6855 13.9453 87.5098 14.209Z" fill="white"/>
<path d="M102.713 6.12305L101.717 10.1367C101.541 10.0488 101.336 9.96094 101.043 9.87305C100.75 9.78516 100.486 9.78516 100.164 9.78516C99.8418 9.78516 99.5195 9.84375 99.2266 9.96094C98.9336 10.0781 98.6992 10.2539 98.4941 10.459C98.2891 10.6641 98.1426 10.9277 98.0254 11.2207C97.9082 11.5137 97.8496 11.8359 97.8496 12.1875V18.252H94.1875V6.15234H97.6445L97.7324 7.99805C97.8203 7.85156 97.9082 7.70508 98.0254 7.58789C98.4355 7.06055 98.9336 6.65039 99.4902 6.35742C100.047 6.06445 100.662 5.91797 101.277 5.91797C101.541 5.91797 101.805 5.94726 102.039 5.97656C102.273 6.00586 102.508 6.06445 102.713 6.12305Z" fill="white"/>
<path d="M112.205 6.15234V7.61719C111.971 7.32422 111.736 7.06054 111.443 6.85547C111.092 6.5625 110.652 6.32812 110.184 6.15234C109.715 5.97656 109.188 5.88867 108.602 5.88867C107.547 5.88867 106.609 6.15234 105.789 6.67969C104.969 7.20703 104.324 7.96875 103.855 8.90625C103.387 9.84375 103.152 10.9277 103.152 12.1582C103.152 13.3594 103.387 14.4434 103.855 15.3809C104.324 16.3184 104.969 17.0801 105.76 17.6074C106.551 18.1348 107.459 18.3984 108.484 18.3984C109.041 18.3984 109.539 18.3105 110.037 18.1641C110.535 17.9883 110.975 17.7832 111.355 17.4902C111.648 17.2852 111.912 17.0215 112.117 16.7871V18.2227H115.809V6.15234H112.205ZM111.912 13.8867C111.678 14.3555 111.355 14.7363 110.945 15C110.535 15.2637 110.037 15.3809 109.48 15.3809C108.924 15.3809 108.455 15.2637 108.074 15C107.664 14.7363 107.342 14.3848 107.137 13.8867C106.902 13.418 106.785 12.8613 106.785 12.1875C106.785 11.543 106.902 10.9863 107.137 10.4883C107.371 10.0195 107.664 9.63867 108.074 9.375C108.455 9.11133 108.953 8.99414 109.48 8.99414C110.037 8.99414 110.535 9.11133 110.945 9.375C111.355 9.63867 111.678 10.0195 111.912 10.4883C112.146 10.957 112.264 11.543 112.264 12.1875C112.264 12.832 112.146 13.3887 111.912 13.8867Z" fill="white"/>
<path d="M121.053 3.7793C120.379 3.7793 119.822 3.60352 119.441 3.28125C119.061 2.95898 118.855 2.49023 118.855 1.875C118.855 1.31836 119.061 0.878907 119.441 0.527345C119.822 0.175782 120.379 0 121.023 0C121.697 0 122.225 0.17578 122.605 0.498046C122.986 0.820312 123.162 1.28906 123.162 1.875C123.162 2.43164 122.957 2.90039 122.576 3.25196C122.195 3.60352 121.727 3.7793 121.053 3.7793ZM119.236 18.252V6.15235H122.898V18.2227H119.236V18.252Z" fill="white"/>
<path d="M137.695 10.8105V18.2227H134.033V11.1328C134.033 10.6348 133.975 10.2539 133.828 9.93164C133.682 9.60937 133.477 9.375 133.213 9.22851C132.92 9.08203 132.598 8.99414 132.188 9.02344C131.865 9.02344 131.572 9.08203 131.309 9.16992C131.045 9.25781 130.811 9.4043 130.605 9.60938C130.4 9.78516 130.254 10.0195 130.137 10.2539C130.02 10.4883 129.961 10.752 129.961 11.0449V18.2812H126.328V6.15234H129.785L129.844 7.64648C129.902 7.55859 129.99 7.4707 130.049 7.38281C130.488 6.94336 131.016 6.5625 131.602 6.29883C132.217 6.03515 132.832 5.88867 133.506 5.88867C134.414 5.88867 135.176 6.06445 135.791 6.44531C136.406 6.82617 136.875 7.38281 137.197 8.11523C137.549 8.84765 137.695 9.75586 137.695 10.8105Z" fill="white"/>
<path d="M144.812 18.457C143.641 18.457 142.586 18.2813 141.678 17.9004C140.77 17.5195 140.066 17.0215 139.539 16.377L141.736 14.4727C142.205 14.9414 142.732 15.293 143.318 15.498C143.904 15.7324 144.461 15.8203 144.988 15.8203C145.193 15.8203 145.398 15.791 145.545 15.7617C145.721 15.7031 145.838 15.6445 145.955 15.5566C146.072 15.4688 146.16 15.3809 146.219 15.2637C146.277 15.1465 146.307 15.0293 146.307 14.8535C146.307 14.5606 146.16 14.3262 145.896 14.1504C145.75 14.0625 145.545 13.9746 145.223 13.8867C144.9 13.7695 144.49 13.6523 143.992 13.5352C143.289 13.3594 142.674 13.125 142.146 12.8906C141.619 12.627 141.18 12.334 140.857 12.0117C140.564 11.6895 140.33 11.3379 140.154 10.957C139.979 10.5762 139.891 10.1367 139.891 9.63867C139.891 9.08203 140.037 8.55469 140.301 8.11523C140.564 7.64648 140.916 7.26562 141.355 6.94336C141.795 6.62109 142.322 6.35742 142.908 6.18164C143.494 6.00586 144.109 5.91797 144.725 5.91797C145.398 5.91797 146.043 6.00586 146.629 6.15234C147.244 6.29883 147.801 6.50391 148.328 6.79688C148.855 7.06055 149.324 7.38281 149.734 7.76367L147.83 9.90235C147.566 9.63867 147.244 9.4043 146.922 9.19922C146.57 8.99414 146.219 8.81836 145.867 8.70117C145.516 8.58398 145.164 8.52539 144.871 8.52539C144.637 8.52539 144.432 8.55469 144.256 8.58399C144.08 8.61328 143.934 8.67187 143.816 8.75976C143.699 8.84766 143.611 8.93555 143.553 9.05273C143.494 9.16992 143.465 9.28711 143.465 9.46289C143.465 9.60938 143.494 9.75586 143.582 9.90235C143.67 10.0488 143.787 10.166 143.934 10.2539C144.08 10.3418 144.314 10.459 144.666 10.5469C144.988 10.6641 145.457 10.8105 146.043 10.957C146.746 11.1621 147.361 11.3672 147.889 11.6309C148.416 11.8652 148.826 12.1582 149.119 12.5098C149.354 12.7734 149.529 13.0664 149.676 13.418C149.793 13.7695 149.852 14.1211 149.852 14.5313C149.852 15.293 149.646 15.9961 149.207 16.582C148.768 17.168 148.182 17.666 147.42 17.9883C146.658 18.3105 145.779 18.457 144.812 18.457Z" fill="white"/>
</svg>
